<?xml version="1.0" encoding="utf-8"?>
<!-- Generator: Adobe Illustrator 19.0.0, SVG Export Plug-In . SVG Version: 6.00 Build 0)  -->
<svg version="1.1" id="graph" xmlns="http://www.w3.org/2000/svg" xmlns:xlink="http://www.w3.org/1999/xlink" x="0px" y="0px"
	 viewBox="0 0 300 300" style="enable-background:new 0 0 300 300;" xml:space="preserve">
<circle class="gray-lighter" cx="150" cy="150.2" r="150"/>
<polygon class="gray-dark" points="87.5,190.6 84.5,188 123.1,142.2 124,143.1 124,142 178.8,142 204.6,97.8 228.2,89.6 
		229.5,93.4 207.3,101.1 181.1,146 125.3,146 	"/>
<circle class="primary-color" cx="86" cy="189.2" r="26"/>
<circle class="gray-light" cx="124.8" cy="143.4" r="12.8"/>
<circle class="gray-light" cx="205.9" cy="99.3" r="8.2"/>
<circle class="primary-color" cx="180.4" cy="143.4" r="17.2"/>
<polygon class="primary-color" points="240,87.9 230.8,98.9 225.8,84.8 "/>
<path class="light-color" d="M86,211.1c-12.1,0-21.9-9.8-21.9-21.9c0-12.1,9.8-21.9,21.9-21.9s21.9,9.8,21.9,21.9
	C107.9,201.3,98.1,211.1,86,211.1z"/>
<path class="light-color" d="M180.4,157.6c-7.9,0-14.3-6.4-14.3-14.3c0-7.9,6.4-14.3,14.3-14.3c7.9,0,14.3,6.4,14.3,14.3
	C194.6,151.2,188.2,157.6,180.4,157.6z"/>
</svg>
