<?xml version="1.0" encoding="utf-8"?>
<!-- Generator: Adobe Illustrator 19.0.0, SVG Export Plug-In . SVG Version: 6.00 Build 0)  -->
<svg version="1.1" id="magnet" xmlns="http://www.w3.org/2000/svg" xmlns:xlink="http://www.w3.org/1999/xlink" x="0px" y="0px"
	 viewBox="0 0 300 300" style="enable-background:new 0 0 300 300;" xml:space="preserve">
<circle class="gray-lighter" cx="150" cy="150.2" r="150"/>
<path class="gray-dark" d="M150,184.1c-9.1,0-16.8-7.4-16.8-16.4l4.2-48.3l-32.3-4.2l-8.4,51.6c0,29.5,23.8,53.5,53.3,53.5
	c29.5,0,53.3-23.9,53.3-53.5l-8.4-51.6l-32.3,4.2l4.2,48.3C166.8,176.8,159.1,184.1,150,184.1z"/>
<polygon class="gray-light" points="138.8,100 109.3,95.9 105.1,109.6 137.4,113.8 "/>
<polygon class="gray-light" points="190.7,95.8 161.2,100.1 162.6,113.8 194.9,109.6 "/>
<polygon class="primary-color" points="148.5,99.1 169.9,65 156.4,62.4 164.8,40 141.8,68.4 152.7,70.8 "/>
</svg>
