<?xml version="1.0" encoding="utf-8"?>
<!-- Generator: Adobe Illustrator 19.0.0, SVG Export Plug-In . SVG Version: 6.00 Build 0)  -->
<svg version="1.1" id="map" xmlns="http://www.w3.org/2000/svg" xmlns:xlink="http://www.w3.org/1999/xlink" x="0px" y="0px"
	 viewBox="0 0 300 300" style="enable-background:new 0 0 300 300;" xml:space="preserve">
<circle class="gray-lighter" cx="150" cy="150.2" r="150"/>
<path class="gray-dark" d="M49.3,108L31,124.5c-9.1,0-16.5-7.4-16.5-16.5S21.9,91.5,31,91.5L49.3,108z"/>
<path class="gray-dark" d="M278.7,204.7c-9.4-3.5-19.3-5-28.9-6.5c-9.7-1.5-19.8-3.1-28.9-6.6c-10.2-4-19.3-10.5-27.5-17.8
	c-0.1-3-0.2-6-0.3-9c-0.2-7-0.4-14.1-0.6-21.2l36.7,10.6l-2.5,16.2l0,0c0,0,0,0,0,0l0,0l0,0c0,0.2-0.1,0.3-0.1,0.5l-0.4,2.5
	l18.8,2.6l0.7-5l-13.8-1.9l2.1-13.6l63.9,18.5c0.2-1.3,0.4-2.7,0.6-4l-19-5.5l0.3-31.7l19.6,5.7c-0.1-1.4-0.2-2.9-0.4-4.3
	l-62.6-18.2l2.6-23.2c0.5-0.1,1-0.2,1.4-0.3c2.2-0.7,4-2.1,5.7-3.5c6.6-5.6,12.3-12.2,17.8-18.6c2.4-2.8,4.9-5.7,7.4-8.4
	c-0.4-0.5-0.7-1-1.1-1.5l-1.4-1.3c-2.6,2.9-5.2,5.9-7.7,8.8c-5.4,6.3-11,12.8-17.3,18.2c-1.3,1.1-2.8,2.3-4.4,2.8
	c-2.1,0.7-4.8,0.2-7.3-1.3c-6.5-4-12.1-11.5-16.8-22.5c-1.9-4.6-3.5-9.6-4.9-15.4c-0.2-1-0.4-2.1-0.6-3.2c-0.6-3.5-1.2-7.1-3.8-10
	c-0.4-0.4-0.7-0.8-1.1-1.1c2.4-7.2,5.2-14.3,8.6-21.2c-2.4-1.1-4.9-2.2-7.3-3.2c-3.2,6.7-6,13.6-8.3,20.5c-4.5-1.4-9.4-1.6-13.7-1.7
	c-1.9-0.1-4,0-6.2,0c-7.9,0.1-16.8,0.3-21.9-4.3c-3.5-3.2-4.3-8.5-4.4-12.3c0-2,0.1-4,0.2-5.9c0.1-2.3,0.2-4.7,0.1-7.1
	c-0.7,0-1.4,0-2.1,0c-0.5,0-1.1,0-1.6,0c0.1,2.3,0,4.6-0.1,7c-0.1,2-0.2,4.1-0.2,6.2c0.1,6.6,2.1,11.8,5.6,15
	c6.2,5.6,15.9,5.4,24.4,5.2c2.1,0,4.2-0.1,6,0c4.2,0.1,8.7,0.3,12.7,1.5c-2.7,8.3-4.8,16.7-6.5,24.8l-33.1,12.3l-14.8-43.7
	l-80.3,4.6c-0.9-0.9-1.7-1.9-2.4-2.8c-1.6,1.2-3.2,2.5-4.8,3.7c1.2,1.5,2.3,2.7,3.1,3.5l78.7,85l-38.5,16.9
	C77.5,111.8,55.7,84,29.8,60.5c-1.6,2.1-3.1,4.3-4.6,6.6C38,78.8,49.9,91.8,61.2,105.2l-7.4,5.9l-7.8,6.2l12.5,15.6l7.8-6.2
	l-10.6-13.3l7.5-6c9.6,11.6,18.8,23.6,27.8,35.6c-7.3,8.7-11.2,19.5-15.1,29.9c-1.4,3.8-2.7,7.3-4.1,10.8
	c-5.8,13.8-14.2,31.4-28.1,44.3c-5.2,4.9-9.8,7.6-14.5,8.7c-0.4,0.1-0.9,0.2-1.4,0.3c1.3,1.8,2.6,3.5,3.9,5.2
	c5.3-1.5,10.4-4.6,16-9.8c2.4-2.3,4.7-4.7,6.8-7.1l14,50.7c1.6,1.1,3.3,2.1,5,3.1l-15.5-56l-2.1,0.6c8.2-10,14.1-21.2,18.6-31.3
	l22.4,76.3c-0.9,7.4-1,14.6-0.5,21.5c2.7,1,5.5,2,8.3,2.9c-3.4-29.3,8.3-66.8,29.2-93c6.6,8.3,13.4,16.4,20.4,24.3
	c8.3,9.3,17,18.3,26.1,26.8c-0.8,2-1.8,4-3,6c-12,20.1-39.1,29.6-58.9,36.4l-5.4,1.9c5.1,1.3,10.2,2.3,15.5,3.1
	c19.8-7.1,43.7-17.2,55.7-37.3c0.8-1.4,1.6-2.8,2.3-4.3c10.2,9.3,20.9,18.2,32,26.6c2.6-1.3,5.2-2.8,7.7-4.2
	c-12.7-9.4-24.9-19.6-36.5-30.3c3.1-10.1,3.7-20.6,4-30.2c0.4-12.3,0.2-24.7-0.1-37c7.5,6.2,15.8,11.7,25.1,15.3
	c9.7,3.8,20.1,5.4,30.1,7c9.3,1.4,19,2.9,27.8,6.2c3.1,1.1,6,2.5,8.9,4.1c0.9-1.8,1.7-3.7,2.5-5.5
	C285.1,207.3,282,205.9,278.7,204.7z M65.6,37l74-4.2l13.8,40.9l-40.1,14.9L65.6,37z M116.3,91.7l38.5-14.3l11,32.5l-23.2,10.2
	L116.3,91.7z M185.2,165c0,0.3,0,0.6,0,0.9c-4-4-7.8-8.2-11.5-12.1l-26.8-29l37.9-16.6c0,0.3,0,0.7,0,1
	C184.1,127.8,184.6,146.7,185.2,165z M98.3,259.4L77,186.7c0.1-0.2,0.1-0.3,0.2-0.5c1.5-3.6,2.9-7.4,4.2-11
	c3.5-9.5,7.1-19.3,13.1-27c2.5,3.4,5,6.7,7.5,10.1c8.7,11.8,17.6,23.7,26.7,35.5C113.5,212.3,102.8,236.1,98.3,259.4z M185.7,218.6
	c-0.2,7.8-0.7,16.2-2.6,24.2c-7.9-7.6-15.5-15.5-22.9-23.7c-18.5-20.7-35.4-43.5-51.8-65.7c-2.2-3-4.4-5.9-6.6-8.9l39.2-17.2
	l28.2,30.5c5.1,5.5,10.4,11.2,16.2,16.7C185.9,189.1,186.2,204,185.7,218.6z M185.1,101.4l-15.6,6.9l-10.9-32.3l31-11.5
	C187,77.8,185.7,90.4,185.1,101.4z M249,123.9l27,7.8l-0.3,31.7l-26.7-7.7V123.9z M245,122.8v31.8l-24.9-7.2l0.9-31.5L245,122.8z
	 M203.8,39.6c1.6,2.1,2.1,4.8,2.6,7.7c0.2,1.1,0.4,2.3,0.6,3.4c1.4,6,3,11.2,5.1,16c5,11.7,11.1,19.8,18.2,24.2
	c1.6,1,3.2,1.6,4.9,1.9l-2.5,22.2L193,103.5C193.9,85.3,196.7,62.4,203.8,39.6z M192.7,109.5c0-0.6,24.4,5.2,24.4,5.2l-0.9,31.5
	l-23.6-6.8C192.4,129.4,192.4,119.4,192.7,109.5z"/>
<g>
	<path class="primary-color" d="M129.2,55.5c-1.8-4.7-6.5-7.9-11.4-7.9c-4.9,0-9.6,3.2-11.4,7.9c-0.5,1.4-0.7,2.8-0.7,4.3
		c0.1,8.2,11.3,22.4,12.1,22.4c0.8,0.1,12-14.1,12.1-22.4C129.9,58.3,129.7,56.8,129.2,55.5z"/>
	<circle class="light-color" cx="117.8" cy="59.7" r="6.5"/>
</g>
<g>
	<path class="primary-color" d="M67.9,164.8c-1.8-4.7-6.5-7.9-11.4-7.9c-4.9,0-9.6,3.2-11.4,7.9c-0.5,1.4-0.7,2.8-0.7,4.3
		c0.1,8.2,11.3,22.4,12.1,22.4c0.8,0.1,12-14.1,12.1-22.4C68.6,167.6,68.5,166.2,67.9,164.8z"/>
	<circle class="light-color" cx="56.5" cy="169.1" r="6.5"/>
</g>
<g>
	<path class="primary-color" d="M156.6,162.5c-1.8-4.7-6.5-7.9-11.4-7.9c-4.9,0-9.6,3.2-11.4,7.9c-0.5,1.4-0.7,2.8-0.7,4.3
		c0.1,8.2,11.3,22.4,12.1,22.4c0.8,0.1,12-14.1,12.1-22.4C157.3,165.3,157.1,163.8,156.6,162.5z"/>
	<circle class="light-color" cx="145.2" cy="166.8" r="6.5"/>
</g>
<g>
	<path class="primary-color" d="M213.9,65.1c-1.8-4.7-6.5-7.9-11.4-7.9c-4.9,0-9.6,3.2-11.4,7.9c-0.5,1.4-0.7,2.8-0.7,4.3
		c0.1,8.2,11.3,22.4,12.1,22.4c0.8,0.1,12-14.1,12.1-22.4C214.7,67.8,214.5,66.4,213.9,65.1z"/>
	<circle class="light-color" cx="202.6" cy="69.3" r="6.5"/>
</g>
<g>
	<path class="primary-color" d="M101.1,243.7c-1.8-4.7-6.5-7.9-11.4-7.9c-4.9,0-9.6,3.2-11.4,7.9c-0.5,1.4-0.7,2.8-0.7,4.3
		c0.1,8.2,11.3,22.4,12.1,22.4c0.8,0.1,12-14.1,12.1-22.4C101.8,246.5,101.6,245.1,101.1,243.7z"/>
	<circle class="light-color" cx="89.7" cy="248" r="6.5"/>
</g>
<g>
	<path class="primary-color" d="M213.5,201.1c-1.8-4.7-6.5-7.9-11.4-7.9c-4.9,0-9.6,3.2-11.4,7.9c-0.5,1.4-0.7,2.8-0.7,4.3
		c0.1,8.2,11.3,22.4,12.1,22.4c0.8,0.1,12-14.1,12.1-22.4C214.2,203.9,214,202.4,213.5,201.1z"/>
	<circle class="light-color" cx="202.1" cy="205.3" r="6.5"/>
</g>
<g>
	<path class="primary-color" d="M272.8,107.2c-1.8-4.7-6.5-7.9-11.4-7.9c-4.9,0-9.6,3.2-11.4,7.9c-0.5,1.4-0.7,2.8-0.7,4.3
		c0.1,8.2,11.3,22.4,12.1,22.4c0.8,0.1,12-14.1,12.1-22.4C273.5,109.9,273.3,108.5,272.8,107.2z"/>
	<circle class="light-color" cx="261.4" cy="111.4" r="6.5"/>
</g>
</svg>
