<?xml version="1.0" encoding="utf-8"?>
<!-- Generator: Adobe Illustrator 19.0.0, SVG Export Plug-In . SVG Version: 6.00 Build 0)  -->
<svg version="1.1" id="store" xmlns="http://www.w3.org/2000/svg" xmlns:xlink="http://www.w3.org/1999/xlink" x="0px" y="0px"
	 viewBox="0 0 300 300" style="enable-background:new 0 0 300 300;" xml:space="preserve">
<circle class="gray-lighter" cx="150" cy="150.2" r="150"/>
<rect class="gray-dark" x="65.6" y="81.6" width="167.7" height="129.4"/>
<path class="gray-light" d="M238.9,222.1H60c0,0,0-2,0-4.5v-2.2c0-2.5,2-4.5,4.5-4.5h169.9c2.5,0,4.5,2,4.5,4.5v2.2
	C238.9,220.1,238.9,222.1,238.9,222.1z"/>
<path class="gray-light" d="M60,83h179c0,0,0-4,0-5H60C60,79,60,83,60,83z"/>
<rect class="gray-lighter" x="76.8" y="126.8" width="78.3" height="44.7"/>
<rect class="gray-lighter" x="79" y="129" width="74" height="41"/>
<rect class="gray-lighter" x="166.2" y="126.8" width="55.9" height="83.9"/>
<rect class="gray-light" x="168" y="129" width="52" height="80"/>
<path class="primary-color" d="M60,86v6.2c0,5.6,4.4,10.1,10,10.1s10-4.5,10-10.1V86H60z"/>
<path class="light-color" d="M80,86v6.2c0,5.6,4.4,10.1,10,10.1s10-4.5,10-10.1V86H80z"/>
<path class="primary-color" d="M100,86v6.2c0,5.6,4.4,10.1,10,10.1s10-4.5,10-10.1V86H100z"/>
<path class="light-color" d="M120,86v6.2c0,5.6,4.4,10.1,10,10.1s10-4.5,10-10.1V86H120z"/>
<path class="primary-color" d="M139,86v6.2c0,5.6,4.9,10.1,10.5,10.1S160,97.7,160,92.2V86H139z"/>
<path class="light-color" d="M160,86v6.2c0,5.6,4.4,10.1,10,10.1s10-4.5,10-10.1V86H160z"/>
<path class="primary-color" d="M180,86v6.2c0,5.6,3.9,10.1,9.5,10.1s9.5-4.5,9.5-10.1V86H180z"/>
<path class="light-color" d="M199,86v6.2c0,5.6,4.9,10.1,10.5,10.1S220,97.7,220,92.2V86H199z"/>
<path class="primary-color" d="M220,86v6.2c0,5.6,4.4,10.1,10,10.1s10-4.5,10-10.1V86H220z"/>
<circle class="gray-lighter" cx="174.6" cy="162.6" r="2.2"/>
<circle class="gray-lighter" cx="174.6" cy="176" r="2.2"/>
<rect class="gray-lighter" x="173.5" y="162.6" width="2.2" height="13.4"/>
</svg>
