<?xml version="1.0" encoding="utf-8"?>
<!-- Generator: Adobe Illustrator 19.0.0, SVG Export Plug-In . SVG Version: 6.00 Build 0)  -->
<svg version="1.1" id="Layer_1" xmlns="http://www.w3.org/2000/svg" xmlns:xlink="http://www.w3.org/1999/xlink" x="0px" y="0px"
	 viewBox="0 0 122 40" style="enable-background:new 0 0 122 40;" xml:space="preserve">
<style type="text/css">
	.st0{fill:#BB0002;}
</style>
<g id="XMLID_13_">
	<path id="XMLID_28_" class="st0" d="M20.6,31.1l-8.7-14.9H1.5V31H0.1V0.1h12.5c4.5,0,8,3.6,8,8c0,4-3.1,7.5-7.2,8l8.3,14.3
		L20.6,31.1z M1.5,14.8h11.1c3.6,0,6.8-3,6.8-6.7s-3.2-6.7-6.7-6.7H1.5V14.8z"/>
	<path id="XMLID_25_" class="st0" d="M37.5,28.9c-1.9,1.6-4.4,2.5-6.9,2.5c-4.9,0-8.8-4-8.8-8.8v-5c0-4.8,3.9-8.8,8.8-8.8
		c4.8,0,8.8,4,8.8,8.8v3.1H23.1v1.9c0,4.1,3.4,7.5,7.4,7.5c2.2,0,4.4-0.8,6.1-2.2L37.5,28.9z M23.1,19.3h15v-1.8
		c0-4.1-3.4-7.5-7.5-7.5s-7.5,3.5-7.5,7.5V19.3z"/>
	<path id="XMLID_22_" class="st0" d="M59.4,31l-0.1-3.7c-2.1,2.5-5.1,4-8.4,4c-4.9,0-8.8-4-8.8-8.8v-4.9c0-4.8,3.9-8.8,8.8-8.8
		c3.4,0,6.4,1.6,8.5,4.1l0.1-4h1.2V31H59.4z M59.2,24.9v-9.7c-1.7-3-4.7-5.1-8.4-5.1c-4.1,0-7.5,3.4-7.5,7.5v4.9
		c0,4.1,3.4,7.4,7.4,7.5C54.2,30,57.4,27.9,59.2,24.9z"/>
	<path id="XMLID_19_" class="st0" d="M80.8,31l-0.1-3.7c-2.1,2.5-5.1,4-8.4,4c-4.9,0-8.8-4-8.8-8.8v-4.9c0-4.8,3.9-8.8,8.8-8.8
		c3.4,0,6.4,1.6,8.5,4.1V0.1H82V31H80.8z M80.6,24.9v-9.7c-1.7-3-4.7-5.1-8.4-5.1c-4.1,0-7.5,3.4-7.5,7.5v4.9c0,4.1,3.4,7.4,7.4,7.5
		C75.7,30,78.9,27.9,80.6,24.9z"/>
	<path id="XMLID_16_" class="st0" d="M88.5,5.9h-1.3V2.2h1.3V5.9z M87.2,31V8.9h1.3V31H87.2z"/>
	<path id="XMLID_2_" class="st0" d="M102.8,28.9c-1,1.3-2.6,2.1-4.3,2.1c-3,0-5.5-2.4-5.5-5.5V0h1.3v25.5c0,2.3,1.9,4.2,4.2,4.2
		c1.4,0,2.6-0.6,3.3-1.6L102.8,28.9z"/>
	<path id="XMLID_1_" class="st0" d="M97.6,37.4c1.5,0.8,3,1.2,4.7,1.2c2.6,0,5.1-1.6,6.4-3.7l1.7-3.9l-10-21.5l1.2-0.6l9.5,20.5
		L120.6,9l1.2,0.6c-10.1,21.7-11.5,25-11.7,25.4c-1.6,3-4.3,5.1-8,5.1c-1.9,0-3.6-0.4-5.3-1.4L97.6,37.4z"/>
</g>
</svg>
